# Created by FreeCAD <http://www.freecad.org>
v 0.000000 0.000000 100.000000
v 0.000000 333.333344 100.000000
v 0.000000 0.000000 0.000000
v 0.000000 333.333344 0.000000
v 0.000000 666.666687 100.000000
v 0.000000 1000.000000 100.000000
v 0.000000 1000.000000 0.000000
v 0.000000 666.666687 0.000000
v 4200.529785 334.280182 -10460.599609
v 4200.979004 1.861610 -10453.700195
v 3799.125977 -1.164160 -10553.700195
v 3799.491943 333.074463 -10560.599609
v 4200.505859 666.449890 -10460.799805
v 3799.466064 667.527649 -10560.900391
v 3799.030029 1001.750732 -10554.400391
v 4200.881836 998.855103 -10454.400391
v 433.221405 7.833540 -20.830999
v 366.922089 -7.370080 -120.879997
v 731.291321 -9.968030 -528.127991
v 868.675293 10.009900 -428.196991
v 1100.527222 -9.853100 -1202.699951
v 1299.618652 10.138200 -1102.689941
v 1473.775024 -8.891580 -2108.459961
v 1850.865967 -7.666200 -3212.560059
v 1726.276001 9.249090 -2008.420044
v 2232.302979 -5.891020 -4483.500000
v 2149.285889 8.046010 -3112.510010
v 2567.764893 6.345540 -4383.509766
v 2617.897949 -4.605450 -5885.470215
v 2982.188965 5.085150 -5785.520020
v 3007.552979 -2.994510 -7386.930176
v 3392.520020 3.520460 -7286.939941
v 3401.402100 -1.836060 -8953.650391
v 3798.639893 2.462160 -8853.629883
v 433.347290 992.385254 -20.951000
v 366.847504 1007.531006 -121.174004
v 731.348999 1010.011475 -528.763977
v 1100.463501 1010.063416 -1203.119995
v 868.691223 990.116577 -428.691986
v 1473.616943 1009.155823 -2108.919922
v 1299.542725 990.163025 -1103.089966
v 1726.322998 991.129700 -2008.920044
v 2149.184082 992.453186 -3113.510010
v 1850.743042 1007.951050 -3213.489990
v 2567.669922 994.139404 -4384.259766
v 2232.261963 1006.343323 -4484.189941
v 2617.802979 1004.973328 -5886.270020
v 2982.122070 995.522949 -5786.319824
v 3392.425049 997.087585 -7287.720215
v 3007.461914 1003.458374 -7387.689941
v 3401.356934 1002.356445 -8954.379883
v 3798.562012 998.235901 -8854.360352
v 1739.608521 314.213409 -2902.959961
v 1372.068237 475.153992 -1886.939941
v 2418.402588 344.261322 -5170.100098
v 2418.170898 710.494690 -5167.799805
v 2041.790039 500.156616 -3864.729980
v 2761.387207 514.160706 -6449.080078
v 1687.203857 698.726501 -2746.239990
v 3123.667969 310.981079 -7855.770020
v 3112.387695 689.861023 -7811.370117
v 3325.206299 500.273804 -8657.790039
v 629.682495 667.003357 -428.669006
v 1007.139648 661.419678 -1054.150024
v 833.095825 387.817383 -736.210022
v 3507.972900 727.054321 -9388.769531
v 265.712189 723.283875 -79.665703
v 434.711884 500.024017 -212.570999
v 263.001190 271.938171 -77.556396
v 3509.909180 273.563141 -9396.120117
v 582.791565 289.073456 -365.915009
v 1092.724609 289.603363 -1226.500000
v 2041.574951 206.110947 -3852.790039
v 2041.541992 794.172913 -3853.310059
v 3595.720215 500.288361 -9742.580078
v 184.979202 499.323486 -41.284401
v 1318.886353 776.605774 -1740.180054
v 2789.928711 226.552902 -6552.549805
v 2782.716309 784.616638 -6525.160156
v 1953.014160 316.747681 -2613.969971
v 2767.396729 347.708862 -5070.060059
v 2767.304932 705.992493 -5067.790039
v 2358.258057 500.226105 -3764.709961
v 3132.730225 514.012329 -6349.049805
v 2026.552856 689.944885 -2809.600098
v 1609.762207 552.583862 -1786.520020
v 3511.927979 691.247803 -7755.939941
v 3521.025391 314.798401 -7790.540039
v 3719.241211 500.325012 -8557.769531
v 750.523926 338.561523 -328.454987
v 1191.287231 348.845367 -954.200012
v 988.509888 608.555969 -636.349976
v 3908.392090 725.886292 -9296.370117
v 314.901398 725.375427 22.304399
v 318.675293 279.566376 20.591499
v 520.841675 500.073364 -112.557999
v 3909.910889 275.711761 -9302.049805
v 694.726074 704.520691 -266.171997
v 1289.960205 702.721436 -1126.709961
v 2358.506104 214.235428 -3752.790039
v 2358.474121 786.203308 -3753.300049
v 3995.662354 500.473450 -9644.490234
v 223.442108 500.818146 58.704399
v 1556.758301 247.454300 -1657.099976
v 3158.050293 780.751953 -6433.660156
v 3167.837402 227.192474 -6469.060059
vn -1.000000 0.000000 0.000000
vn -1.000000 0.000000 0.000000
vn -1.000000 0.000000 0.000000
vn -1.000000 0.000000 -0.000000
vn -1.000000 0.000000 0.000000
vn -1.000000 0.000000 0.000000
vn 0.241576 -0.019810 -0.970180
vn 0.241952 -0.020289 -0.970076
vn 0.241946 -0.000567 -0.970290
vn 0.241569 0.019184 -0.970194
vn 0.242178 0.018401 -0.970057
vn 0.242171 -0.000854 -0.970233
vn 0.018079 -0.999837 0.000000
vn 0.024374 -0.990629 0.134386
vn 0.092702 -0.991684 0.089268
vn 0.083405 -0.992982 0.083850
vn 0.078509 -0.995994 0.042803
vn 0.083296 -0.995969 0.033268
vn 0.098690 -0.993131 0.062866
vn 0.063526 -0.997768 0.020589
vn 0.060082 -0.997764 0.029282
vn 0.048203 -0.998752 0.013072
vn 0.046277 -0.998751 0.018818
vn 0.032834 -0.999387 0.012148
vn 0.024960 -0.999671 0.005948
vn 0.033257 -0.999389 0.010729
vn 0.016114 -0.999865 0.003109
vn 0.016064 -0.999866 0.003299
vn 0.024472 -0.999671 0.007730
vn 0.006998 -0.999973 0.002135
vn 0.010282 -0.999945 0.002136
vn 0.009997 -0.999945 0.003267
vn 0.017569 0.999846 0.000000
vn 0.023881 0.990711 0.133871
vn 0.092337 0.991777 0.088611
vn 0.102802 0.993105 0.056346
vn 0.083172 0.993050 0.083277
vn 0.082904 0.996006 0.033155
vn 0.075342 0.995992 0.048202
vn 0.059635 0.997794 0.029162
vn 0.046870 0.998790 0.014913
vn 0.061401 0.997807 0.024701
vn 0.033723 0.999392 0.008861
vn 0.046313 0.998789 0.016577
vn 0.024362 0.999687 0.005722
vn 0.033150 0.999392 0.010785
vn 0.015748 0.999871 0.003078
vn 0.015704 0.999871 0.003245
vn 0.023857 0.999687 0.007561
vn 0.006691 0.999976 0.002069
vn 0.009852 0.999949 0.002070
vn 0.009564 0.999949 0.003212
vn -0.946199 -0.016202 -0.323180
vn -0.941672 -0.045249 -0.333478
vn -0.964167 -0.007562 -0.265189
vn -0.964187 0.006757 -0.265137
vn -0.960774 0.001134 -0.277329
vn -0.965906 0.001015 -0.258893
vn -0.946286 0.012248 -0.323098
vn -0.939735 0.011203 -0.341719
vn -0.953591 -0.007274 -0.301018
vn -0.969811 -0.005393 -0.243799
vn -0.969805 0.004938 -0.243831
vn -0.969831 -0.000307 -0.243780
vn -0.968386 0.000402 -0.249457
vn -0.745228 0.026451 -0.666285
vn -0.876808 0.029636 -0.479926
vn -0.851299 0.102142 -0.514643
vn -0.855096 -0.055129 -0.515530
vn -0.970395 0.003431 -0.241498
vn -0.970463 0.004756 -0.241203
vn -0.969977 0.007886 -0.243068
vn -0.969946 -0.002549 -0.243306
vn -0.287189 -0.000000 -0.957874
vn -0.313023 -0.027259 -0.949354
vn -0.674960 0.134200 -0.725547
vn -0.696695 -0.104921 -0.709653
vn -0.282848 -0.000000 -0.959165
vn -0.312185 0.031126 -0.949511
vn -0.970389 -0.003923 -0.241517
vn -0.970455 -0.005210 -0.241228
vn -0.969986 -0.008277 -0.243022
vn -0.969958 0.002010 -0.243265
vn -0.745251 -0.008418 -0.666731
vn -0.813348 -0.092314 -0.574407
vn -0.733909 -0.021671 -0.678902
vn -0.829705 0.010272 -0.558107
vn -0.660035 -0.130832 -0.739755
vn -0.670141 0.066932 -0.739210
vn -0.875558 -0.060904 -0.479259
vn -0.923191 -0.054295 -0.380488
vn -0.919555 -0.013486 -0.392729
vn -0.885009 -0.016883 -0.465267
vn -0.917834 -0.027709 -0.395997
vn -0.882409 0.014864 -0.470249
vn -0.957772 -0.006470 -0.287457
vn -0.953523 -0.042681 -0.298283
vn -0.953314 -0.011556 -0.301759
vn -0.959835 -0.035572 -0.278300
vn -0.961092 -0.010505 -0.276030
vn -0.957744 0.005858 -0.287563
vn -0.959987 0.037891 -0.277469
vn -0.961104 0.009910 -0.276007
vn -0.952468 0.049537 -0.300584
vn -0.952623 0.011002 -0.303956
vn -0.970361 -0.000292 -0.241661
vn -0.970428 0.001118 -0.241389
vn -0.970284 0.002064 -0.241960
vn -0.970423 -0.001609 -0.241407
vn -0.970283 -0.002506 -0.241959
vn -0.217825 -0.000000 -0.975988
vn -0.273679 -0.065791 -0.959568
vn -0.564635 0.062502 -0.822971
vn -0.269206 0.060949 -0.961152
vn -0.564402 -0.062356 -0.823142
vn -0.924552 0.011211 -0.380890
vn -0.934922 0.070668 -0.347745
vn -0.939003 0.001770 -0.343905
vn -0.912543 0.072265 -0.402546
vn -0.912133 0.037787 -0.408148
vn -0.967925 -0.004570 -0.251198
vn -0.965965 -0.024298 -0.257529
vn -0.965785 -0.002545 -0.259333
vn -0.968441 -0.013486 -0.248880
vn -0.968612 -0.006728 -0.248486
vn -0.967925 0.003947 -0.251207
vn -0.965813 0.025250 -0.258009
vn -0.965815 0.003251 -0.259211
vn -0.968387 0.012581 -0.249136
vn -0.968553 0.006416 -0.248725
vn 0.933697 0.015956 0.357710
vn 0.958943 0.009274 0.283448
vn 0.958950 -0.008029 0.283460
vn 0.954170 -0.001652 0.299261
vn 0.961592 -0.001493 0.274477
vn 0.933737 -0.019432 0.357432
vn 0.927229 -0.058893 0.369835
vn 0.925201 0.016424 0.379121
vn 0.943783 -0.012820 0.330318
vn 0.967985 -0.005939 0.250937
vn 0.967987 0.006333 0.250919
vn 0.968186 0.000398 0.250230
vn 0.965562 -0.000579 0.260174
vn 0.682903 0.023931 0.730117
vn 0.842212 0.033464 0.538108
vn 0.810958 0.117631 0.573157
vn 0.816317 -0.065045 0.573930
vn 0.969859 -0.005787 0.243598
vn 0.969802 -0.004663 0.243849
vn 0.968424 -0.013486 0.248942
vn 0.968406 0.004377 0.249339
vn 0.239546 0.000000 0.970885
vn 0.269249 0.036465 0.962380
vn 0.241790 -0.000000 0.970329
vn 0.269068 -0.033306 0.962545
vn 0.610991 0.138749 0.779384
vn 0.633926 -0.119838 0.764053
vn 0.969853 0.006367 0.243607
vn 0.969797 0.005266 0.243854
vn 0.968453 0.013939 0.248806
vn 0.968429 -0.003871 0.249260
vn 0.683586 -0.001057 0.729869
vn 0.765518 -0.105077 0.634777
vn 0.676418 -0.022159 0.736185
vn 0.785018 0.014291 0.619308
vn 0.594542 -0.135340 0.792592
vn 0.605677 0.079724 0.791706
vn 0.840510 -0.072145 0.536970
vn 0.902735 -0.065039 0.425253
vn 0.898312 -0.016099 0.439064
vn 0.853148 -0.015871 0.521428
vn 0.896252 -0.034332 0.442215
vn 0.850056 0.019554 0.526329
vn 0.949817 0.007309 0.312719
vn 0.941838 0.066972 0.329325
vn 0.942380 0.014747 0.334219
vn 0.952616 0.047241 0.300486
vn 0.954583 0.013234 0.297651
vn 0.949803 -0.006452 0.312782
vn 0.952812 -0.050091 0.299399
vn 0.954588 -0.012597 0.297663
vn 0.943671 -0.054703 0.326331
vn 0.943702 -0.013899 0.330504
vn 0.969918 0.000217 0.243434
vn 0.969941 -0.000283 0.243338
vn 0.969125 -0.005495 0.246508
vn 0.969940 0.000695 0.243342
vn 0.969123 0.005833 0.246509
vn 0.181738 0.000000 0.983347
vn 0.227643 0.064775 0.971588
vn 0.497939 -0.062598 0.864950
vn 0.230405 -0.068042 0.970713
vn 0.498088 0.065446 0.864653
vn 0.904553 0.015300 0.426088
vn 0.918510 0.083718 0.386433
vn 0.923862 0.001846 0.382721
vn 0.888949 0.087202 0.449628
vn 0.888858 0.039221 0.456502
vn 0.964620 -0.004375 0.263607
vn 0.961336 -0.035585 0.273069
vn 0.961483 -0.004090 0.274835
vn 0.965455 -0.020444 0.259766
vn 0.965800 -0.009486 0.259116
vn 0.964614 0.005021 0.263619
vn 0.961605 0.034234 0.272294
vn 0.961449 0.002630 0.274972
vn 0.965523 0.021161 0.259455
vn 0.965878 0.009936 0.258806
f 1//1 2//1 3//1
f 3//2 2//2 4//2
f 4//3 2//3 5//3
f 6//4 7//4 8//4
f 8//5 5//5 6//5
f 4//6 5//6 8//6
f 9//7 10//7 11//7
f 11//8 12//8 9//8
f 13//9 9//9 12//9
f 14//10 15//10 16//10
f 16//11 13//11 14//11
f 12//12 14//12 13//12
f 17//13 1//13 3//13
f 3//14 18//14 17//14
f 19//15 17//15 18//15
f 19//16 20//16 17//16
f 21//17 22//17 19//17
f 23//18 22//18 21//18
f 19//19 22//19 20//19
f 24//20 25//20 23//20
f 23//21 25//21 22//21
f 26//22 27//22 24//22
f 24//23 27//23 25//23
f 26//24 28//24 27//24
f 26//25 29//25 30//25
f 30//26 28//26 26//26
f 29//27 31//27 32//27
f 32//28 31//28 33//28
f 32//29 30//29 29//29
f 11//30 10//30 34//30
f 34//31 33//31 11//31
f 33//32 34//32 32//32
f 35//33 7//33 6//33
f 35//34 36//34 7//34
f 37//35 36//35 35//35
f 38//36 37//36 39//36
f 35//37 39//37 37//37
f 40//38 38//38 41//38
f 39//39 41//39 38//39
f 41//40 42//40 40//40
f 43//41 44//41 40//41
f 42//42 43//42 40//42
f 45//43 46//43 44//43
f 45//44 44//44 43//44
f 47//45 46//45 48//45
f 48//46 46//46 45//46
f 49//47 50//47 47//47
f 51//48 50//48 49//48
f 47//49 48//49 49//49
f 52//50 16//50 15//50
f 15//51 51//51 52//51
f 52//52 51//52 49//52
f 23//53 53//53 24//53
f 23//54 54//54 53//54
f 29//55 26//55 55//55
f 47//56 56//56 46//56
f 56//57 55//57 57//57
f 58//58 55//58 56//58
f 40//59 44//59 59//59
f 59//60 53//60 54//60
f 59//61 57//61 53//61
f 33//62 31//62 60//62
f 61//63 50//63 51//63
f 62//64 60//64 61//64
f 61//65 60//65 58//65
f 37//66 63//66 36//66
f 64//67 37//67 38//67
f 63//68 37//68 64//68
f 64//69 65//69 63//69
f 15//70 14//70 66//70
f 66//71 51//71 15//71
f 51//72 66//72 61//72
f 66//73 62//73 61//73
f 7//74 67//74 8//74
f 7//75 36//75 67//75
f 67//76 36//76 63//76
f 63//77 68//77 67//77
f 4//78 69//78 3//78
f 69//79 18//79 3//79
f 70//80 12//80 11//80
f 11//81 33//81 70//81
f 70//82 33//82 60//82
f 62//83 70//83 60//83
f 18//84 71//84 19//84
f 65//85 19//85 71//85
f 63//86 71//86 68//86
f 71//87 63//87 65//87
f 71//88 18//88 69//88
f 69//89 68//89 71//89
f 19//90 72//90 21//90
f 21//91 72//91 23//91
f 54//92 23//92 72//92
f 65//93 72//93 19//93
f 72//94 64//94 54//94
f 64//95 72//95 65//95
f 24//96 73//96 26//96
f 53//97 73//97 24//97
f 57//98 73//98 53//98
f 26//99 73//99 55//99
f 55//100 73//100 57//100
f 46//101 74//101 44//101
f 46//102 56//102 74//102
f 56//103 57//103 74//103
f 44//104 74//104 59//104
f 74//105 57//105 59//105
f 14//106 12//106 75//106
f 14//107 75//107 66//107
f 75//108 62//108 66//108
f 75//109 12//109 70//109
f 75//110 70//110 62//110
f 8//111 76//111 4//111
f 8//112 67//112 76//112
f 76//113 67//113 68//113
f 76//114 69//114 4//114
f 68//115 69//115 76//115
f 40//116 77//116 38//116
f 40//117 59//117 77//117
f 77//118 59//118 54//118
f 64//119 38//119 77//119
f 77//120 54//120 64//120
f 78//121 31//121 29//121
f 78//122 29//122 55//122
f 58//123 78//123 55//123
f 60//124 31//124 78//124
f 60//125 78//125 58//125
f 50//126 79//126 47//126
f 79//127 56//127 47//127
f 79//128 58//128 56//128
f 50//129 61//129 79//129
f 79//130 61//130 58//130
f 25//131 27//131 80//131
f 81//132 28//132 30//132
f 82//133 48//133 45//133
f 81//134 82//134 83//134
f 82//135 81//135 84//135
f 85//136 43//136 42//136
f 42//137 86//137 85//137
f 86//138 80//138 85//138
f 80//139 83//139 85//139
f 49//140 87//140 52//140
f 32//141 34//141 88//141
f 88//142 89//142 87//142
f 84//143 88//143 87//143
f 17//144 20//144 90//144
f 22//145 91//145 20//145
f 20//146 91//146 90//146
f 90//147 91//147 92//147
f 16//148 93//148 13//148
f 93//149 16//149 52//149
f 93//150 52//150 87//150
f 87//151 89//151 93//151
f 6//152 5//152 94//152
f 6//153 94//153 35//153
f 1//154 95//154 2//154
f 1//155 17//155 95//155
f 95//156 17//156 90//156
f 96//157 95//157 90//157
f 97//158 10//158 9//158
f 10//159 97//159 34//159
f 88//160 34//160 97//160
f 97//161 89//161 88//161
f 98//162 39//162 35//162
f 92//163 39//163 98//163
f 96//164 90//164 98//164
f 98//165 90//165 92//165
f 98//166 35//166 94//166
f 94//167 96//167 98//167
f 99//168 41//168 39//168
f 41//169 99//169 42//169
f 99//170 86//170 42//170
f 39//171 92//171 99//171
f 99//172 91//172 86//172
f 92//173 91//173 99//173
f 27//174 28//174 100//174
f 80//175 27//175 100//175
f 100//176 83//176 80//176
f 28//177 81//177 100//177
f 81//178 83//178 100//178
f 101//179 45//179 43//179
f 82//180 45//180 101//180
f 101//181 83//181 82//181
f 101//182 43//182 85//182
f 101//183 85//183 83//183
f 13//184 102//184 9//184
f 102//185 13//185 93//185
f 93//186 89//186 102//186
f 102//187 97//187 9//187
f 97//188 102//188 89//188
f 5//189 2//189 103//189
f 5//190 103//190 94//190
f 103//191 96//191 94//191
f 95//192 103//192 2//192
f 95//193 96//193 103//193
f 22//194 25//194 104//194
f 25//195 80//195 104//195
f 104//196 80//196 86//196
f 91//197 22//197 104//197
f 86//198 91//198 104//198
f 49//199 48//199 105//199
f 105//200 48//200 82//200
f 82//201 84//201 105//201
f 87//202 49//202 105//202
f 87//203 105//203 84//203
f 106//204 30//204 32//204
f 81//205 30//205 106//205
f 84//206 81//206 106//206
f 106//207 32//207 88//207
f 84//208 106//208 88//208
